<svg xmlns="http://www.w3.org/2000/svg" xmlns:xlink="http://www.w3.org/1999/xlink" version="1.1" x="0px" y="0px" viewBox="0 0 100 125" style="enable-background:new 0 0 100 100;" xml:space="preserve"><g><path d="M81.4,20.5H18.7c-2.5,0-4.5,2-4.5,4.5s2,4.5,4.5,4.5h62.7c2.5,0,4.5-2,4.5-4.5S83.9,20.5,81.4,20.5z"/><path d="M18.7,54.5h32.7c2.5,0,4.5-2,4.5-4.5s-2-4.5-4.5-4.5H18.7c-2.5,0-4.5,2-4.5,4.5S16.2,54.5,18.7,54.5z"/><path d="M71.4,71.5H18.7c-2.5,0-4.5,2-4.5,4.5s2,4.5,4.5,4.5h52.7c2.5,0,4.5-2,4.5-4.5S73.9,71.5,71.4,71.5z"/></g><text x="0" y="115" fill="#000000" font-size="5px" font-weight="bold" font-family="'Helvetica Neue', Helvetica, Arial-Unicode, Arial, Sans-serif">Created by Viktor Vorobyev</text><text x="0" y="120" fill="#000000" font-size="5px" font-weight="bold" font-family="'Helvetica Neue', Helvetica, Arial-Unicode, Arial, Sans-serif">from the Noun Project</text></svg>