<svg xmlns:inkscape="http://www.inkscape.org/namespaces/inkscape" xmlns:sodipodi="http://sodipodi.sourceforge.net/DTD/sodipodi-0.dtd" xmlns="http://www.w3.org/2000/svg" xmlns:svg="http://www.w3.org/2000/svg" viewBox="0 0 16.933333 21.166666250000002" version="1.1" x="0px" y="0px"><g transform="translate(851.24347,348.81778)"><path style="" d="m -845.83632,-346.99572 a 7.4083867,7.4083867 0 0 0 -3.36826,9.92083 7.4083867,7.4083867 0 0 0 9.92084,3.36829 7.4083867,7.4083867 0 0 0 3.69854,-4.16031 5.6324013,5.6324013 0 0 1 -1.52577,1.10881 5.6324013,5.6324013 0 0 1 -7.54255,-2.56082 5.6324013,5.6324013 0 0 1 2.5608,-7.54253 5.6324013,5.6324013 0 0 1 1.80983,-0.53928 7.4083867,7.4083867 0 0 0 -5.55343,0.40501 z" fill="#000000" fill-opacity="1" fill-rule="evenodd" stroke-width="3.72397" stroke-linecap="round" stroke-linejoin="round"/></g><text x="0" y="31.933333" fill="#000000" font-size="5px" font-weight="bold" font-family="'Helvetica Neue', Helvetica, Arial-Unicode, Arial, Sans-serif">Created by Cuan Studio</text><text x="0" y="36.933333000000005" fill="#000000" font-size="5px" font-weight="bold" font-family="'Helvetica Neue', Helvetica, Arial-Unicode, Arial, Sans-serif">from the Noun Project</text></svg>