<svg xmlns="http://www.w3.org/2000/svg" xmlns:xlink="http://www.w3.org/1999/xlink" version="1.1" x="0px" y="0px" viewBox="0 0 60 75" enable-background="new 0 0 60 60" xml:space="preserve"><path d="M21.16,38.74h-4.01c0.44,0.87,1.1,2.05,2.01,3.22C20.06,40.79,20.73,39.61,21.16,38.74z"/><path d="M9.25,54.95h19.99c2.31,0,4.2-1.88,4.2-4.2V35.42h-2.66c-3.42,0-6.2-2.78-6.2-6.2v-2.65H9.25c-2.32,0-4.2,1.88-4.2,4.19  v19.99C5.05,53.07,6.93,54.95,9.25,54.95z M12.31,36.74h5.85v-1.93c0-0.55,0.45-1,1-1s1,0.45,1,1v1.93h5.85c0.55,0,1,0.45,1,1  c0,0.55-0.45,1-1,1h-2.63c-0.43,0.98-1.37,2.88-2.87,4.73c1.16,1.13,2.58,2.06,4.24,2.43c0.54,0.12,0.88,0.65,0.76,1.19  c-0.1,0.47-0.51,0.78-0.97,0.78c-0.07,0-0.15,0-0.22-0.02c-2.07-0.45-3.78-1.57-5.16-2.9c-1.39,1.33-3.1,2.45-5.17,2.9  c-0.07,0.02-0.14,0.02-0.21,0.02c-0.46,0-0.88-0.31-0.98-0.78c-0.12-0.54,0.23-1.07,0.77-1.19c1.66-0.37,3.07-1.3,4.23-2.43  c-1.5-1.85-2.44-3.75-2.86-4.73h-2.63c-0.55,0-1-0.45-1-1C11.31,37.19,11.76,36.74,12.31,36.74z"/><polygon points="40.77,14.99 38.31,20.87 43.24,20.87 "/><path d="M30.78,33.42h19.99c2.31,0,4.19-1.88,4.19-4.2V9.23c0-2.31-1.88-4.19-4.19-4.19H30.78c-2.32,0-4.2,1.88-4.2,4.19v19.99  C26.58,31.54,28.46,33.42,30.78,33.42z M34.13,25.68l1.76-4.19v-0.01l3.96-9.47c0.16-0.37,0.52-0.61,0.92-0.61  c0.41,0,0.77,0.24,0.93,0.61l3.96,9.47c0,0,0,0,0,0.01l1.75,4.19c0.22,0.51-0.02,1.09-0.53,1.3c-0.13,0.06-0.26,0.08-0.39,0.08  c-0.39,0-0.76-0.23-0.92-0.61l-1.5-3.58h-6.6l-1.49,3.58c-0.21,0.51-0.8,0.75-1.31,0.53C34.16,26.77,33.92,26.19,34.13,25.68z"/><path d="M11.17,24.48c0.55,0,1-0.45,1-1v-0.1c0-3.9,2.63-7.19,6.2-8.21l-0.18,0.22c-0.34,0.43-0.27,1.06,0.16,1.4  c0.18,0.15,0.4,0.22,0.62,0.22c0.29,0,0.59-0.13,0.78-0.38l1.73-2.18c0.03-0.03,0.04-0.08,0.06-0.11c0.04-0.06,0.07-0.12,0.09-0.18  c0.02-0.06,0.03-0.13,0.04-0.19c0.01-0.05,0.03-0.09,0.03-0.14c0-0.02-0.01-0.04-0.01-0.06c0-0.02,0.01-0.04,0-0.06  c-0.01-0.05-0.03-0.09-0.04-0.14c-0.02-0.06-0.03-0.13-0.06-0.19c-0.03-0.05-0.06-0.1-0.1-0.15c-0.04-0.06-0.08-0.11-0.13-0.15  c-0.01-0.01-0.02-0.03-0.04-0.04l-2.18-1.73c-0.43-0.34-1.06-0.27-1.41,0.16c-0.34,0.43-0.27,1.06,0.16,1.41l0.32,0.25  c-4.62,1.12-8.06,5.28-8.06,10.23v0.1C10.17,24.03,10.61,24.48,11.17,24.48z"/><path d="M41.57,43.29c-0.43-0.34-1.06-0.27-1.41,0.16l-1.73,2.18c-0.03,0.03-0.04,0.08-0.06,0.11c-0.04,0.06-0.07,0.12-0.09,0.18  c-0.02,0.07-0.03,0.13-0.04,0.2c-0.01,0.04-0.03,0.08-0.03,0.12c0,0.02,0.01,0.04,0.01,0.06c0,0.07,0.02,0.13,0.04,0.2  c0.02,0.06,0.03,0.12,0.05,0.17c0.03,0.05,0.07,0.1,0.1,0.15c0.04,0.06,0.08,0.11,0.13,0.16c0.01,0.01,0.02,0.03,0.04,0.04  l2.18,1.73c0.18,0.15,0.4,0.22,0.62,0.22c0.29,0,0.59-0.13,0.78-0.38c0.34-0.43,0.27-1.06-0.16-1.41l-0.32-0.25  c4.62-1.12,8.06-5.28,8.06-10.23v-0.1c0-0.55-0.45-1-1-1s-1,0.45-1,1v0.1c0,3.9-2.63,7.19-6.2,8.21l0.18-0.22  C42.07,44.26,42,43.63,41.57,43.29z"/><text x="0" y="75" fill="#000000" font-size="5px" font-weight="bold" font-family="'Helvetica Neue', Helvetica, Arial-Unicode, Arial, Sans-serif">Created by Vectorstall</text><text x="0" y="80" fill="#000000" font-size="5px" font-weight="bold" font-family="'Helvetica Neue', Helvetica, Arial-Unicode, Arial, Sans-serif">from the Noun Project</text></svg>