<svg xmlns="http://www.w3.org/2000/svg" xmlns:xlink="http://www.w3.org/1999/xlink" version="1.1" x="0px" y="0px" viewBox="0 0 512 640" style="enable-background:new 0 0 512 512;" xml:space="preserve"><g><g><g><path d="M317,501.1C317,501.1,317,501.1,317,501.1c-1.4,0-2.6-0.5-3.6-1.5L55,238.4c-0.9-0.9-1.5-2.2-1.4-3.6l2.1-174.4     c0-2.7,2.2-4.9,5-4.9l175.4-1.3c1.3,0,2.6,0.5,3.6,1.5l258.5,261.3c1.9,2,1.9,5.1,0,7.1L320.6,499.7     C319.6,500.6,318.4,501.1,317,501.1z M63.6,232.8l253.5,256.2l170.3-168.6L233.9,64.1L65.5,65.4L63.6,232.8z"/></g><g><path d="M141,181.7c-11.1,0-21.4-4.3-29.2-12.2c-15.9-16.1-15.7-42.1,0.4-58c7.7-7.7,18-11.9,28.9-11.9c11,0,21.4,4.3,29.2,12.2     c7.7,7.8,11.9,18.1,11.9,29.1c-0.1,11-4.4,21.2-12.2,28.9C162.2,177.5,151.9,181.7,141,181.7z M141,109.5c-8.2,0-16,3.2-21.8,9     c-12.2,12.1-12.3,31.8-0.3,43.9c5.9,6,13.7,9.2,22.1,9.2c8.3,0,16-3.2,21.9-9c5.9-5.8,9.2-13.6,9.2-21.9c0-8.3-3.1-16.1-9-22     C157.2,112.8,149.4,109.5,141,109.5z"/></g><g><path d="M149.1,153.8c-1.3,0-2.6-0.5-3.5-1.5c-1.9-2-1.9-5.1,0-7.1c6.4-6.4-7.8-39.4-44.6-76.7C70.7,38,42.1,21.9,29.5,21.8     c0,0,0,0-0.1,0c-2.1,0-3.7,0.4-4.5,1.3c-5.8,5.7,4.7,34.1,38.7,70.5c1.9,2,1.8,5.2-0.2,7.1c-2,1.9-5.2,1.8-7.1-0.2     C27.6,69.9,3.3,30.4,17.8,16.1c2.8-2.8,6.8-4.2,11.7-4.2c17.7,0.1,49.2,20.1,78.6,49.8c33.5,33.8,59.5,75.9,44.6,90.8     C151.7,153.4,150.4,153.8,149.1,153.8z"/></g><g><path d="M224.5,315c-1.3,0-2.6-0.5-3.6-1.5c-1.9-2-1.9-5.1,0.1-7.1l79.6-78.5c2-1.9,5.1-1.9,7.1,0.1c1.9,2,1.9,5.1-0.1,7.1     L228,313.5C227,314.5,225.7,315,224.5,315z"/></g><g><path d="M263.7,354.5c-1.3,0-2.6-0.5-3.6-1.5c-1.9-2-1.9-5.1,0.1-7.1l79.6-78.5c2-1.9,5.1-1.9,7.1,0.1c1.9,2,1.9,5.1-0.1,7.1     l-79.6,78.5C266.2,354,265,354.5,263.7,354.5z"/></g><g><path d="M302.9,394c-1.3,0-2.6-0.5-3.6-1.5c-1.9-2-1.9-5.1,0.1-7.1L379,307c2-1.9,5.1-1.9,7.1,0.1c1.9,2,1.9,5.1-0.1,7.1     l-79.6,78.5C305.4,393.5,304.2,394,302.9,394z"/></g></g></g><text x="0" y="527" fill="#000000" font-size="5px" font-weight="bold" font-family="'Helvetica Neue', Helvetica, Arial-Unicode, Arial, Sans-serif">Created by ibrandify</text><text x="0" y="532" fill="#000000" font-size="5px" font-weight="bold" font-family="'Helvetica Neue', Helvetica, Arial-Unicode, Arial, Sans-serif">from the Noun Project</text></svg>