<svg xmlns="http://www.w3.org/2000/svg" viewBox="0 0 24 30" x="0px" y="0px"><path d="m17.75,12c0,3.171-2.58,5.75-5.75,5.75s-5.75-2.579-5.75-5.75,2.58-5.75,5.75-5.75,5.75,2.579,5.75,5.75Zm-11.937,5.127l-.707.707c-.293.293-.293.768,0,1.061.146.146.338.22.53.22s.384-.073.53-.22l.707-.707c.293-.293.293-.768,0-1.061s-.768-.293-1.061,0Zm0-10.254c.146.146.338.22.53.22s.384-.073.53-.22c.293-.293.293-.768,0-1.061l-.707-.707c-.293-.293-.768-.293-1.061,0s-.293.768,0,1.061l.707.707Zm6.187-2.123c.414,0,.75-.336.75-.75v-1c0-.414-.336-.75-.75-.75s-.75.336-.75.75v1c0,.414.336.75.75.75Zm-8,6.5h-1c-.414,0-.75.336-.75.75s.336.75.75.75h1c.414,0,.75-.336.75-.75s-.336-.75-.75-.75Zm17,0h-1c-.414,0-.75.336-.75.75s.336.75.75.75h1c.414,0,.75-.336.75-.75s-.336-.75-.75-.75Zm-3.167-6.145l-.707.707c-.293.293-.293.768,0,1.061.146.146.338.22.53.22s.384-.073.53-.22l.707-.707c.293-.293.293-.768,0-1.061s-.768-.293-1.061,0Zm-5.833,14.145c-.414,0-.75.336-.75.75v1c0,.414.336.75.75.75s.75-.336.75-.75v-1c0-.414-.336-.75-.75-.75Zm6.187-2.123c-.293-.293-.768-.293-1.061,0s-.293.768,0,1.061l.707.707c.146.146.338.22.53.22s.384-.073.53-.22c.293-.293.293-.768,0-1.061l-.707-.707Z"/><text x="0" y="39" fill="#000000" font-size="5px" font-weight="bold" font-family="'Helvetica Neue', Helvetica, Arial-Unicode, Arial, Sans-serif">Created by Saepul Nahwan</text><text x="0" y="44" fill="#000000" font-size="5px" font-weight="bold" font-family="'Helvetica Neue', Helvetica, Arial-Unicode, Arial, Sans-serif">from the Noun Project</text></svg>